<svg width="170" height="344" xmlns="http://www.w3.org/2000/svg" xmlns:xlink="http://www.w3.org/1999/xlink"><defs><path d="M26.863 332.857c-11.622 0-17.24-6.376-17.24-17.12V27.075c0-13.93 9.227-17.52 18.443-17.52l12.933.004a2.002 2.002 0 0 1 1.902 1.888c0 6.173 3.506 10.053 9.222 10.053h65.353c5.716 0 9.222-3.88 9.222-10.053a2.002 2.002 0 0 1 1.902-1.888l12.933-.003c9.216 0 18.443 3.588 18.443 17.519v288.662c0 10.744-5.618 17.12-17.24 17.12H26.863zM13.207 27.26v292.651h143.16V27.261H13.208z" id="a"/><path d="M26.863 332.8h115.873c11.622 0 17.24-6.374 17.24-17.115V27.113c0-13.926-9.227-17.513-18.443-17.513l-12.933.003a2.002 2.002 0 0 0-1.902 1.888c0 6.17-3.506 10.05-9.222 10.05H52.123c-5.716 0-9.222-3.88-9.222-10.05a2.002 2.002 0 0 0-1.902-1.888L28.066 9.6c-9.216 0-18.443 3.587-18.443 17.513v288.572c0 10.741 5.618 17.115 17.24 17.115z" id="c"/></defs><g fill="none" fill-rule="evenodd"><path d="M25.879.519c-13.863 0-25.1 11.237-25.1 25.1v292.767c0 13.862 11.237 25.1 25.1 25.1H143.72c13.863 0 25.1-11.238 25.1-25.1V25.619c0-13.863-11.237-25.1-25.1-25.1H25.88z" stroke="#4A5E6D"/><mask id="b" fill="#fff"><use xlink:href="#a"/></mask><use fill="#FFF" xlink:href="#a"/><g mask="url(#b)" fill="#FFF" stroke="#EBF1F0"><path d="M4.5-2.5h171v353H4.5z"/></g><rect fill="#000" x="58.2" y="328.002" width="53.6" height="2" rx="1"/><mask id="d" fill="#fff"><use xlink:href="#c"/></mask><path stroke="#A9B4BB" stroke-width=".8" d="M26.863 333.2c-11.553 0-17.64-6.255-17.64-17.515V27.113c0-12.45 7.164-17.913 18.843-17.913l12.953.004a2.406 2.406 0 0 1 2.282 2.287c0 5.978 3.355 9.65 8.822 9.65h65.353c5.467 0 8.822-3.672 8.823-9.672a2.406 2.406 0 0 1 2.301-2.266l12.933-.003c11.679 0 18.843 5.464 18.843 17.913v288.572c0 11.26-6.087 17.515-17.64 17.515H26.863z"/><g mask="url(#d)" fill="#FFF" stroke="#EBF1F0"><path d="M4.5-2.5h171v353H4.5z"/></g></g></svg>